<svg xmlns="http://www.w3.org/2000/svg" viewBox="0 0 32.14 32"><defs><style>.cls-1{fill:#e30613;}.cls-2{fill:#fff;}</style></defs><title>3Ресурс 1</title><g id="Слой_2" data-name="Слой 2"><g id="Слой_1-2" data-name="Слой 1"><path class="cls-1" d="M32.14,3.2V28.8A3.24,3.24,0,0,1,28.93,32H3.21A3.24,3.24,0,0,1,0,28.8V3.2A3.24,3.24,0,0,1,3.21,0H28.93a3.24,3.24,0,0,1,3.21,3.2ZM16.07,27.79c6,0,8.73-4.75,8.73-9.5,0-6.68-4.6-14.18-8.73-14.18S7.35,11.7,7.35,18.38C7.35,23,10,27.79,16.07,27.79Z"/><path class="cls-2" d="M24.8,18.29c0,4.75-2.76,9.5-8.73,9.5S7.35,23,7.35,18.38C7.35,11.7,12,4.11,16.07,4.11S24.8,11.61,24.8,18.29Z"/></g></g></svg>