<svg xmlns="http://www.w3.org/2000/svg" xmlns:xlink="http://www.w3.org/1999/xlink" viewBox="0 0 153.86 153.82"><defs><style>.cls-1{fill:url(#Безымянный_градиент_2);}.cls-2{fill:none;}.cls-3{clip-path:url(#clip-path);}.cls-4{fill:url(#Безымянный_градиент);}.cls-5{mask:url(#mask);}.cls-6{fill:#fff;}.cls-7{fill:#1d1d1b;}</style><radialGradient id="Безымянный_градиент_2" cx="94.99" cy="96.32" r="46.65" gradientTransform="matrix(1, 0, 0, -1, 0, 149.16)" gradientUnits="userSpaceOnUse"><stop offset="0.2" stop-color="#77787b"/><stop offset="0.32" stop-color="#717275"/><stop offset="0.48" stop-color="#626265"/><stop offset="0.65" stop-color="#47484a"/><stop offset="0.84" stop-color="#232324"/><stop offset="1"/></radialGradient><clipPath id="clip-path" transform="translate(0 -0.01)"><path class="cls-2" d="M0,76.93A76.93,76.93,0,1,0,76.94,0,76.93,76.93,0,0,0,0,76.93"/></clipPath><linearGradient id="Безымянный_градиент" y1="72.17" x2="153.86" y2="72.17" gradientTransform="matrix(1, 0, 0, -1, 0, 149.16)" gradientUnits="userSpaceOnUse"><stop offset="0.1" stop-color="#f7a700"/><stop offset="0.89" stop-color="#feda00"/></linearGradient><mask id="mask" x="48.35" y="6.18" width="93.29" height="93.29" maskUnits="userSpaceOnUse"><g transform="translate(0 -0.01)"><g id="SVGID"><path class="cls-1" d="M141.64,52.84A46.65,46.65,0,1,0,95,99.49a46.65,46.65,0,0,0,46.65-46.65"/></g></g></mask></defs><title>4Ресурс 1</title><g id="Слой_2" data-name="Слой 2"><g id="Слой_1-2" data-name="Слой 1"><g class="cls-3"><path class="cls-4" d="M153.86,126.38H0V93.45H153.86Zm0-98.78H0V60.53H153.86Z" transform="translate(0 -0.01)"/></g><g class="cls-5"><path class="cls-6" d="M141.64,52.84A46.65,46.65,0,1,0,95,99.49a46.65,46.65,0,0,0,46.65-46.65" transform="translate(0 -0.01)"/></g><g class="cls-3"><path class="cls-7" d="M153.86,27.6H0V0H153.86Zm0,98.78H0v27.45H153.86Zm0-65.85H0V93.45H153.86Z" transform="translate(0 -0.01)"/></g></g></g></svg>