<svg xmlns="http://www.w3.org/2000/svg" width="90" height="32" viewBox="0 0 90 32">
    <g fill="none" fill-rule="nonzero">
        <path fill="#E30613" d="M89.633 19.566s-1.929.274-4.225.274c-2.755 0-3.306-.914-3.306-3.017V14.17c0-2.194.46-3.108 3.306-3.108 2.02 0 3.95.274 3.95.274l.366-4.023s-2.48-.365-4.683-.365c-5.786 0-7.806 1.92-7.806 6.491v4.023c0 5.028 2.571 6.491 7.806 6.491 2.112 0 4.959-.365 4.959-.365l-.367-4.023zM60.888 11.429h4.775V23.68h4.96V11.429h4.775l.275-4.115h-15.06zM50.786 22.034l2.663-6.217h.275l.552 7.863h4.775L57.949 7.314h-4.592l-3.949 9.326h-.275l-4.225-9.326h-4.5L39.306 23.68h4.684l.459-7.863h.275l2.94 6.217zM32.143 3.2v25.6c0 1.737-1.47 3.2-3.214 3.2H3.214C1.47 32 0 30.537 0 28.8V3.2C0 1.463 1.47 0 3.214 0H28.93c1.744 0 3.214 1.463 3.214 3.2zM16.07 27.794c5.97 0 8.725-4.754 8.725-9.508 0-6.675-4.592-14.172-8.725-14.172-4.04 0-8.724 7.589-8.724 14.263 0 4.663 2.663 9.417 8.724 9.417z"/>
        <path fill="#FFF" d="M24.796 18.286c0 4.754-2.755 9.508-8.725 9.508-6.06 0-8.724-4.754-8.724-9.417 0-6.674 4.684-14.263 8.724-14.263 4.133 0 8.725 7.497 8.725 14.172z"/>
    </g>
</svg>
