<svg width="590" height="300" viewBox="0 0 59 30" xmlns="http://www.w3.org/2000/svg"><title>Artboard 5</title><g fill="none" fill-rule="evenodd"><path d="M9.855 10.886h-1.58c-1.552 0-2.87 1.212-2.87 3.566 0 1.412.639 2.454 1.775 2.967l-2.12 3.937c-.07.129 0 .228.11.228h.984c.083 0 .139-.028.167-.1l1.926-3.865h.693v3.866c0 .043.041.1.097.1h.86c.082 0 .11-.043.11-.114V11.029c0-.1-.055-.143-.152-.143m-.915 5.82h-.583c-.914 0-1.8-.685-1.8-2.396 0-1.784.83-2.511 1.676-2.511h.707v4.907" fill="#F00"/><path d="M15.063 14.433h-.86c-.068 0-.11.057-.11.099v2.725h-1.594v-2.725c0-.071-.027-.1-.096-.1h-.86c-.069 0-.11.043-.11.1v6.933c0 .072.027.114.096.114h.874c.055 0 .096-.042.096-.114v-3.31h1.594v3.31c0 .072.042.114.11.114h.86c.07 0 .097-.057.097-.114v-6.933c0-.057-.042-.1-.097-.1M34.68 21.123l-.112-.485c-.013-.043-.027-.057-.068-.057-.07 0-.444.156-.985.156-1.053 0-1.566-1.04-1.566-2.695 0-1.456.43-2.896 1.15-2.896.195 0 .43.056.804.414.042.042.07.056.111.056.042 0 .083-.028.125-.1l.374-.627a.242.242 0 0 0 .042-.129c0-.057-.055-.1-.139-.142-.568-.3-.956-.357-1.288-.357-1.303 0-2.315 1.598-2.315 4.094 0 2.154.97 3.395 2.356 3.395.582 0 1.206-.285 1.455-.47a.145.145 0 0 0 .055-.157M28.657 17.656l1.662-3.124c.028-.043.014-.1-.041-.1h-.818c-.235 0-.319.086-.401.271l-1.248 2.668c-.069.157-.138.256-.207.3v-3.139c0-.057-.028-.1-.084-.1h-.9c-.042 0-.084.043-.084.1v6.947c0 .043.028.1.084.1h.9c.056 0 .084-.043.084-.1V17.9c.041.028.069.07.097.128l1.58 3.338c.082.171.207.214.388.214h.886c.056 0 .07-.057.042-.1l-1.94-3.823M20.717 20.68h-.167c-.207 0-.263-.085-.263-.256v-5.892c0-.071-.028-.1-.083-.1h-2.771c-.07 0-.111.043-.111.1v.514c0 1.726-.097 3.95-.984 5.634h-.305c-.083 0-.11.044-.11.115v2.082c0 .072.055.1.096.1h.665c.153 0 .208-.114.208-.214V21.58h2.966v1.298c0 .057.041.1.096.1h.707c.083 0 .166-.071.166-.214v-1.968c0-.071-.041-.115-.11-.115m-1.497 0h-2.01c.708-1.24.985-2.639 1.082-4.35.028-.371.041-.756.041-.999h.887v5.35M23.544 14.261c-1.497 0-2.162 1.94-2.162 4.052 0 2.153.942 3.437 2.328 3.437.679 0 1.275-.27 1.58-.47.055-.029.069-.072.055-.129l-.11-.485c-.015-.057-.043-.085-.112-.085-.055 0-.457.156-1.025.156-1.067 0-1.566-.955-1.566-2.21v-.338s.54.066.86.066h2.022v-.599c0-2.21-.762-3.395-1.87-3.395m-.153 3.096c-.319 0-.818.057-.818.057s0-.214.028-.443c.125-1.212.416-1.825.9-1.825.445 0 .721.627.79 1.725.015.229.015.486.015.486h-.915" fill="#000"/><path d="M39.476 13.023c0-1.019.083-1.665 2.139-3.24 1.702-1.304 7.158-5.76 7.158-5.76v7.438h4.148v10.705h-12.15c-.712 0-1.296-.598-1.296-1.33v-7.813" fill="#FC0"/><path d="M48.773 11.461v4.31l-7.624 5.33 9.639-3.219v-6.42h-2.015" fill="#D6AB05"/><path d="M45.289 11.238c.445-.545 1.096-.737 1.454-.43.357.308.286 1-.16 1.545-.445.545-1.097.737-1.454.43-.358-.308-.286-1 .16-1.545" fill="#000"/></g></svg>