<svg xmlns="http://www.w3.org/2000/svg" viewBox="0 0 85.34 82.07"><defs><style>.cls-1{fill:#2f9a41;}</style></defs><title>4Ресурс 1</title><g id="Слой_2" data-name="Слой 2"><g id="Layer_1" data-name="Layer 1"><path class="cls-1" d="M78.4,16c-.93-1.27-1.85-2.54-2.66-3.82L26,40.69,2,26.93a16.59,16.59,0,0,0-1,4.62L26.25,46.16Z"/><path class="cls-1" d="M26,51.44.24,36.64A11.2,11.2,0,0,0,0,39.41a42.67,42.67,0,0,0,85.33,0A41.9,41.9,0,0,0,80.72,20Z"/><path class="cls-1" d="M72.27,8.55a47,47,0,0,0-3.82-3.24L26,29.94,5.56,18.26c-.69,1.27-1.39,2.66-2.2,4.16L25.79,35.37Z"/><path class="cls-1" d="M64.29,2.54a41.18,41.18,0,0,0-5-2.54L26,19.16,11.11,10.75a41.92,41.92,0,0,0-3,3.58l17.8,10.18Z"/></g></g></svg>